{"title":"Mr.Calzaghe.2015.BRRip.480p.x264.AAC-VYTO [P2PDL]","uid":12925876,"size":426284928,"categoryP":"video","categoryS":"movies","magnet":"?xt=urn:btih:c8feae1a8796b7537674847b1d2ad4305076875b&amp;dn=Mr.Calzaghe.2015.BRRip.480p.x264.AAC-VYTO+%5BP2PDL%5D&amp;tr=udp%3A%2F%2Ftracker.leechers-paradise.org%3A6969&amp;tr=udp%3A%2F%2Fzer0day.ch%3A1337&amp;tr=udp%3A%2F%2Fopen.demonii.com%3A1337&amp;tr=udp%3A%2F%2Ftracker.coppersurfer.tk%3A6969&amp;tr=udp%3A%2F%2Fexodus.desync.com%3A6969","seeders":0,"leechers":0,"uploader":"VYTOP2PDL","files":7,"time":1449468036,"description":"____    ____ ____    ____ .___________.  ______   \r\n     /   /      /   / |           | /  __    \r\n    /   /      /   /  `---|  |----`|  |  |  | \r\n        /     _    _/       |  |     |  |  |  | \r\n       /        |  |         |  |     |  `--'  | \r\n    __/         |__|         |__|      ______/  \r\n                                                  \r\nPresenting Small Encodes with quality for years!\r\n                                                                                                   \r\n                                                                                                   \r\n\r\nMr.Calzaghe.2015.BRRip.480p.x264.AAC-VYTO\r\n\r\n\r\nGenre: Documentary    \nhttp://www.imdb.com/title/tt3726252/\r\n\r\n\r\nGeneral\r\nFormat                         : MPEG-4\r\nFile size                      : 401 MiB\r\nDuration                       : 1h 30mn\r\nOverall bit rate               : 623 Kbps\r\n\r\nVideo\r\nFormat                         : AVC\r\nBit rate                       : 588 Kbps\r\nWidth                          : 720 pixels\r\nHeight                         : 384 pixels\r\nDisplay aspect ratio           : 1.85:1\r\nFrame rate mode                : Constant\r\nFrame rate                     : 25.000 fps\r\nBit depth                      : 8 bits\r\nStream size                    : 378 MiB (94%)\r\nWriting library                : x264 \r\n\r\nAudio\r\nFormat                         : AAC\r\nBit rate mode                  : Variable\r\nBit rate                       : 32.0 Kbps\r\nChannel(s)                     : 2 channels\r\nChannel positions              : Front: L R\r\nSampling rate                  : 48.0 KHz\r\nStream size                    : 20.6 MiB (5%)\r\nLanguage                       : English\r\n\r\nSubtitle                       : Yes (English)\r\n \nhttp://ititli.com/7i \nhttp://ititli.com/7p \nhttp://ititli.com/7D \nhttp://ititli.com/7a \nhttp://ititli.com/7b \nhttp://ititli.com/7z \nhttp://ititli.com/7I \nhttp://ititli.com/7O \nhttp://ititli.com/C9\r\n\r\n----------------------------------------------------------------------------------------------------\r\n\r\n\r\nEncoder Notes: Looking For Early Access To Anything You Can Provide WEBDL, DVDScr, DVDR, BluRay,\r\nDirect Audio, Music Releases and Seedboxes. If You Got anything to offer please contact us.\r\n\r\nSupport us by donating BC - 1FgwdzPsd1y25Gea8wP1qni35uGCtmkRCD\r\n\r\nSend some love!\r\nFind us! Join us!","torrent":{"xt":"urn:btih:c8feae1a8796b7537674847b1d2ad4305076875b","amp;dn":"Mr.Calzaghe.2015.BRRip.480p.x264.AAC-VYTO+%5BP2PDL%5D","amp;tr":["udp%3A%2F%2Ftracker.leechers-paradise.org%3A6969","udp%3A%2F%2Fzer0day.ch%3A1337","udp%3A%2F%2Fopen.demonii.com%3A1337","udp%3A%2F%2Ftracker.coppersurfer.tk%3A6969","udp%3A%2F%2Fexodus.desync.com%3A6969"],"infoHash":"c8feae1a8796b7537674847b1d2ad4305076875b","infoHashBuffer":{"type":"Buffer","data":[200,254,174,26,135,150,183,83,118,116,132,123,29,42,212,48,80,118,135,91]},"announce":[],"urlList":[]}}